
<svg xmlns="http://www.w3.org/2000/svg" xmlns:xlink="http://www.w3.org/1999/xlink" version="1.1" width="339.91208746870575" height="279.3186806334545" enable-background="new 0 0 828 828" xml:space="preserve" style=""><rect id="backgroundrect" width="100%" height="100%" x="0" y="0" fill="none" stroke="none" class="selected" style=""/>

<g class="currentLayer" style=""><title>Layer 1</title><g id="svg_1" class="">
	<path fill="#84A25B" d="M335.86812447944425,185.12449191343848 c-2.133010347893653,-2.1596387687614067 -16.41325117196667,-4.817199742214374 -25.33657213788042,-20.22907750647693 c2.120325473912584,-1.143047600849473 4.1128264484774695,-2.3710581175788543 5.984333240453695,-3.673164200482576 c4.232844871529125,-2.9569070607972967 7.8324218035417905,-6.29318342040721 10.722621552151583,-10.101695521768244 c4.930512940487937,-6.508554532753957 3.7127650383052844,-15.830764698368155 -2.7155387914858355,-20.82282997675397 c-6.434158387013152,-4.992065278385813 -15.639473859121443,-3.75911505724481 -20.57193831868339,2.7494394755091474 c-0.3327340021188182,0.4455613379283601 -0.8342744041395586,1.012639404382636 -1.5104757632842525,1.6478853917173042 c-0.268333872676466,0.24797316146345524 -0.5561829360930395,0.5097774952794538 -0.8752563046937823,0.774545651742426 c-1.6539124152240374,-5.325001355729178 -3.6912983284911665,-10.690508287633662 -6.239006479612086,-15.939438195423852 c-8.343719800932586,-17.20400252479924 -22.151693009095027,-33.192837764339316 -45.71628582777376,-42.62372142700921 c-3.614213325067746,-1.4532610378993729 -7.459681660405755,-2.7454877119798486 -11.551041399069108,-3.866800613418183 c-4.169420501623779,-0.9859650005598739 -8.201258908529807,-1.6972824358335301 -12.096490980255087,-2.1517352417028106 c-25.20289308131069,-2.9618467652089198 -44.85859319474608,4.565274817221621 -60.250224131468165,15.76457265925241 c-4.920755345117883,3.5783218757794217 -9.406321936731391,7.530085405077513 -13.495730156320732,11.634979771135905 c-0.05952133175732526,-0.12052878764359186 -0.11123658721860784,-0.24204551616950834 -0.16490336175390116,-0.36455018557774915 c-0.7386499695130366,-1.6656683275991466 -1.0987052386680025,-3.0250749816776885 -1.2401903715337756,-3.9112579531227856 c-0.9962504872824426,-6.22106373599752 -5.672090188611988,-10.911807045274355 -11.41248354481435,-12.148709029944659 c3.4678493945169464,-30.510578268828237 -10.313778306146348,-59.74177309504622 -36.465109657426225,-71.69289394852598 c-33.388539837248416,-15.258746927502255 -74.28945234990087,3.417287511960524 -91.36134120934615,41.70987611085903 c-17.0767676571303,38.29357653978084 -3.8503471330230363,81.70369890912035 29.53331390654035,96.96244583662262 c14.886187496553328,6.798021211275041 31.25845676796577,6.855321782449863 46.35443256497525,1.4404178064291548 c2.3154773813136504,4.911054126035204 5.484744357506965,9.780614735012778 9.50292213089492,14.589910950168553 c4.812446036510293,5.7300571174822315 10.84459149427725,11.360332205849689 18.224260872648564,16.71200796540163 l-15.245267006171291,39.46329854445307 c-0.008781835833047992,0.022722640293464054 -0.018539431203101323,0.041493517057630006 -0.020490950277111977,0.06322821646876955 c-2.0100646462309824,5.289435483965495 1.2801965125509942,7.584422153605361 5.753078230183431,9.376546914142045 c0.03415158379518662,0.018770876764165962 0.07610924388641592,0.031614108234384805 0.11513962536662924,0.0454452805869281 c5.152010355388147,1.9571108878848795 10.762627693168799,3.8934750172409442 16.739154857326454,5.738948585423152 l-4.074771826534262,10.538365391755685 c-0.0029272786110159984,0.021734699411139542 -0.011709114444063988,0.03951763529298095 -0.020490950277111977,0.06224027558644502 c-1.2811722720879999,3.8164156284196316 1.8315006509590077,7.935141166830567 8.190525553622749,10.326946042938236 c0.17270943804994376,0.06619203911574309 0.3502976737849143,0.13040819646683707 0.5278859095198843,0.19264847205328217 c19.313208515946513,7.071680835678935 44.4048650100386,13.68495710195929 71.06261556102424,16.80882617186943 c5.591102147040547,0.5749815935128725 9.233612498681445,-0.19857611734722924 10.36354204253362,-9.385438382082967 h0.0039030381480213306 l4.876846165952644,-43.140414508464936 c3.0316848814755635,0.6609324502751066 6.080933434617222,1.2586366840814422 9.144818380813962,1.7861971152427374 l2.6911448030607032,32.235523049366854 c0,0.00790352705859619 0,0.018770876764165962 0,0.02568646294043764 l0.42152811998630346,5.0454140860313395 c0.7084014238658711,3.3906131081377624 2.4803807430675513,5.573962458074958 6.4868494020114404,5.159027287498659 c0.007806076296042662,0 0.018539431203101323,0 0.025369747962138648,0 c3.3790552766494613,-0.3072496144029268 6.7405468816328264,-0.6964983220387898 10.074717219580041,-1.1746617090838576 l0.061472850831335926,0.7468833070373401 c0.023418228888127977,0.2618043338159987 0.0448849387022453,0.5176810223380502 0.06732740805336793,0.7696059473308036 c0.5278859095198843,5.4643010201369355 1.8100339411448887,9.098935526208857 10.207420516612766,8.620772139163787 c23.99099973635007,-2.5834654072786276 46.975991390047646,-9.566231563548353 65.95939318248635,-23.07731107021853 c0.013660633518074644,-0.010867349705569762 0.02146670981411731,-0.013831172352543334 0.03512734333219195,-0.023710581175788573 c1.5251121563393324,-1.0887108523216242 3.027781843327542,-2.218915221700878 4.498251465594576,-3.3925889899024115 c4.588021342999066,-4.300506660758648 4.526548492167731,-8.475544829462082 1.0138141589485388,-15.138218139858663 c-0.018539431203101323,-0.04050557617530548 -0.03903038148021326,-0.08199909323293549 -0.061472850831335926,-0.12151672852591637 l-13.062492921890366,-24.609607378703863 C319.81004977894753,202.57646759970123 328.15572109895413,194.88831165345175 335.86812447944425,185.12449191343848 z" id="svg_2"/>
	<path fill="#92B265" d="M335.86812447944425,185.12449191343848 c-2.133010347893653,-2.1596387687614067 -16.41325117196667,-4.817199742214374 -25.33657213788042,-20.22907750647693 c2.120325473912584,-1.143047600849473 4.1128264484774695,-2.3710581175788543 5.984333240453695,-3.673164200482576 c4.232844871529125,-2.9569070607972967 7.8324218035417905,-6.29318342040721 10.722621552151583,-10.101695521768244 c4.930512940487937,-6.508554532753957 3.7127650383052844,-15.830764698368155 -2.7155387914858355,-20.82282997675397 c-6.434158387013152,-4.992065278385813 -15.639473859121443,-3.75911505724481 -20.57193831868339,2.7494394755091474 c-0.3327340021188182,0.4455613379283601 -0.8342744041395586,1.012639404382636 -1.5104757632842525,1.6478853917173042 c-0.268333872676466,0.24797316146345524 -0.5561829360930395,0.5097774952794538 -0.8752563046937823,0.774545651742426 c-1.6539124152240374,-5.325001355729178 -3.6912983284911665,-10.690508287633662 -6.239006479612086,-15.939438195423852 c-8.343719800932586,-17.20400252479924 -22.151693009095027,-33.192837764339316 -45.71628582777376,-42.62372142700921 c-3.614213325067746,-1.4532610378993729 -7.459681660405755,-2.7454877119798486 -11.551041399069108,-3.866800613418183 c-4.169420501623779,-0.9859650005598739 -8.201258908529807,-1.6972824358335301 -12.096490980255087,-2.1517352417028106 c-25.20289308131069,-2.9618467652089198 -44.85859319474608,4.565274817221621 -60.250224131468165,15.76457265925241 c-4.920755345117883,3.5783218757794217 -9.406321936731391,7.530085405077513 -13.495730156320732,11.634979771135905 c-0.05952133175732526,-0.12052878764359186 -0.11123658721860784,-0.24204551616950834 -0.16490336175390116,-0.36455018557774915 c-0.7386499695130366,-1.6656683275991466 -1.0987052386680025,-3.0250749816776885 -1.2401903715337756,-3.9112579531227856 c-0.9962504872824426,-6.22106373599752 -5.672090188611988,-10.911807045274355 -11.41248354481435,-12.148709029944659 c3.4678493945169464,-30.510578268828237 -10.313778306146348,-59.74177309504622 -36.465109657426225,-71.69289394852598 c-33.388539837248416,-15.258746927502255 -74.28945234990087,3.417287511960524 -91.36134120934615,41.70987611085903 c-17.0767676571303,38.29357653978084 -3.8503471330230363,81.70369890912035 29.53331390654035,96.96244583662262 c14.886187496553328,6.798021211275041 31.25845676796577,6.855321782449863 46.35443256497525,1.4404178064291548 c2.3154773813136504,4.911054126035204 5.484744357506965,9.780614735012778 9.50292213089492,14.589910950168553 c4.812446036510293,5.7300571174822315 10.84459149427725,11.360332205849689 18.224260872648564,16.71200796540163 c3.5244434476632556,2.567658353161435 7.362105706705221,5.065172903677828 11.514938296199912,7.477724538314313 c3.646413389788922,2.1161693699391275 7.5357909042921705,4.17207434605646 11.683744696101833,6.144992288058532 l-15.857068235873635,41.06475071470112 l-4.074771826534262,10.538365391755685 c-0.0029272786110159984,0.021734699411139542 -0.011709114444063988,0.03951763529298095 -0.020490950277111977,0.06224027558644502 c-1.2811722720879999,3.8164156284196316 1.8315006509590077,7.935141166830567 8.190525553622749,10.326946042938236 c0.17270943804994376,0.06619203911574309 0.3502976737849143,0.13040819646683707 0.5278859095198843,0.19264847205328217 c19.313208515946513,7.071680835678935 44.4048650100386,13.68495710195929 71.06261556102424,16.80882617186943 c5.591102147040547,0.5749815935128725 9.233612498681445,-0.19857611734722924 10.36354204253362,-9.385438382082967 h0.0039030381480213306 l4.876846165952644,-43.140414508464936 c3.0316848814755635,0.6609324502751066 6.080933434617222,1.2586366840814422 9.144818380813962,1.7861971152427374 c5.447665495100763,0.9355800155613235 10.932409852607728,1.6439336281880066 16.42398452687373,2.0608446805289544 l3.275624765726896,39.230144496224476 l0.061472850831335926,0.7468833070373401 c0.023418228888127977,0.2618043338159987 0.0448849387022453,0.5176810223380502 0.06732740805336793,0.7696059473308036 c0.5278859095198843,5.4643010201369355 1.8100339411448887,9.098935526208857 10.207420516612766,8.620772139163787 c23.99099973635007,-2.5834654072786276 46.975991390047646,-9.566231563548353 65.95939318248635,-23.07731107021853 c0.013660633518074644,-0.010867349705569762 0.02146670981411731,-0.013831172352543334 0.03512734333219195,-0.023710581175788573 c1.5251121563393324,-1.0887108523216242 3.027781843327542,-2.218915221700878 4.498251465594576,-3.3925889899024115 c4.588021342999066,-4.300506660758648 4.526548492167731,-8.475544829462082 1.0138141589485388,-15.138218139858663 c-0.018539431203101323,-0.04050557617530548 -0.03903038148021326,-0.08199909323293549 -0.061472850831335926,-0.12151672852591637 l-13.062492921890366,-24.609607378703863 C319.81004977894753,202.57646759970123 328.15572109895413,194.88831165345175 335.86812447944425,185.12449191343848 z" id="svg_3"/>
	<path fill="#008964" d="M324.5229683426833,130.29871264883906 c-6.434158387013152,-4.992065278385813 -15.639473859121443,-3.75911505724481 -20.57193831868339,2.7494394755091474 c-0.3327340021188182,0.4455613379283601 -0.8342744041395586,1.012639404382636 -1.5104757632842525,1.6478853917173042 c-0.268333872676466,0.24797316146345524 -0.5561829360930395,0.5097774952794538 -0.8752563046937823,0.774545651742426 c-1.6539124152240374,-5.325001355729178 -3.6912983284911665,-10.690508287633662 -6.239006479612086,-15.939438195423852 c-28.260923470285398,8.61978419828146 -53.43454376548593,-13.419201004613994 -45.71628582777376,-42.62372142700921 c-3.614213325067746,-1.4532610378993729 -7.459681660405755,-2.7454877119798486 -11.551041399069108,-3.866800613418183 c-4.169420501623779,-0.9859650005598739 -8.201258908529807,-1.6972824358335301 -12.096490980255087,-2.1517352417028106 v0.003951763529298096 c-6.765916629594965,29.51078209591582 -39.31823054362981,36.95195282158413 -60.250224131468165,15.759632954840788 c-4.920755345117883,3.5783218757794217 -9.406321936731391,7.530085405077513 -13.495730156320732,11.634979771135905 c-0.05952133175732526,-0.12052878764359186 -0.11123658721860784,-0.24204551616950834 -0.16490336175390116,-0.36455018557774915 c-0.7386499695130366,-1.6656683275991466 -1.0987052386680025,-3.0250749816776885 -1.2401903715337756,-3.9112579531227856 c-0.9962504872824426,-6.22106373599752 -5.672090188611988,-10.911807045274355 -11.41248354481435,-12.148709029944659 c-1.7339246972584736,-0.3833210623419154 -3.5605465505324534,-0.44160957439906223 -5.415465430379586,-0.14028760529008238 c-8.003179722517723,1.3149493143739401 -13.430354267341373,8.944816748566229 -12.136497121272306,17.04198022009802 c0.5434980621119695,3.3718422313735967 1.5212091181913114,6.702190945689562 2.8765391150917163,10.015744665006013 c2.3818290298300124,5.793285333951002 5.930666465918403,11.53717362378578 10.66212446085725,17.191159293329022 c7.102553669861804,8.470605125050458 16.89332486417329,16.72188737422487 29.737247649774464,24.18973250371594 c12.84392278560117,7.4629054250794455 28.74587596017705,14.128542558123002 48.16056346797212,19.319183953856044 l0.32590368535978104,0.0800232114682864 c17.699302241739694,4.2955669563470265 33.419764142432584,6.142028465411558 47.231640388743045,6.142028465411558 c16.32152977548817,-0.005927645293947148 29.974357217266764,-2.56667041227911 41.03264005014818,-6.8296353195094275 c3.0882789346218726,-1.1934325858480237 5.973599885546636,-2.5251768952214806 8.658890131385307,-3.978437933120853 c2.120325473912584,-1.143047600849473 4.1128264484774695,-2.3710581175788543 5.984333240453695,-3.673164200482576 c4.232844871529125,-2.9569070607972967 7.8324218035417905,-6.29318342040721 10.722621552151583,-10.101695521768244 C332.169020074657,144.61298809283912 330.95127217247443,135.29077792722487 324.5229683426833,130.29871264883906 zM260.8400221600303,145.9951173872111 c-11.186107332229113,0 -24.589140332534342,-1.4987063184863012 -40.230565710729785,-5.284495779553873 c-13.061517162353358,-3.4973107234288108 -23.975387583757986,-7.662469483308999 -32.968963236336116,-12.085480813475888 c-1.8178400174409317,-0.8960623802683425 -3.5605465505324534,-1.8010162284776055 -5.224216561126542,-2.7109097810984912 c10.341099573182497,-14.218445178414532 33.18948489169933,-21.034249325571416 46.6949726433901,-16.878969974514472 c13.79723985325538,2.7593188843323935 30.71593446539081,19.54542241590836 33.32511546734306,36.95195282158413 C261.9114061316622,145.9911656236818 261.3776656649203,145.9951173872111 260.8400221600303,145.9951173872111 z" id="svg_4"/>
	<path fill="#00926B" d="M310.53155234156384,164.8964023478439 c-2.6852902458386714,1.4542489787816975 -5.570611196763434,2.7850053472728296 -8.658890131385307,3.978437933120853 c-11.058282832881416,4.262964907230317 -24.711110274660005,6.823707674215479 -41.03264005014818,6.8296353195094275 c-13.811876246310458,0 -29.53331390654035,-1.8464615090645333 -47.231640388743045,-6.142028465411558 l-0.32590368535978104,-0.0800232114682864 c-19.414687507795065,-5.190641395733042 -35.31664068237095,-11.856278528776597 -48.16056346797212,-19.319183953856044 c-12.84392278560117,-7.468833070373392 -22.633718220375656,-15.719127378665481 -29.737247649774464,-24.18973250371594 c-4.73145799493885,-5.653985669543244 -8.279319671490232,-11.397873959378021 -10.66212446085725,-17.191159293329022 c-1.3563057564374101,-3.3135537193164497 -2.3340168125167513,-6.64489037451474 -2.8765391150917163,-10.015744665006013 c-1.292881386532064,-8.097163471531788 4.133317398754581,-15.727030905724078 12.136497121272306,-17.04198022009802 c1.853943120310129,-0.3013219691089799 3.680564973584109,-0.24303345705183277 5.415465430379586,0.14028760529008238 c5.740393356202362,1.2369019846703027 10.417208817068914,5.927645293947137 11.41248354481435,12.148709029944659 c0.1424608924027785,0.8861829714450978 0.5025161615577451,2.2455896255236403 1.2401903715337756,3.9112579531227856 c0.053666774535293275,0.12250466940824097 0.10538202999657582,0.24402139793415734 0.16490336175390116,0.36455018557774915 c0.728892374142983,1.5935486431894557 1.7817369145717346,3.4439619157832873 3.2141519148955604,5.460349256607637 c3.090230453695883,4.348915763992549 7.956343264741468,9.453606302963362 15.030599908030117,14.621525058402938 c3.4444311656288185,2.5212251316921823 7.4157724812405155,5.0543055539722594 11.954030087852308,7.542928636547732 c1.6636700105940898,0.909893552620886 3.40637654368561,1.8148474008301487 5.224216561126542,2.7109097810984912 c8.993575652578135,4.4239992710492135 19.90744607398276,8.588170090047075 32.968963236336116,12.085480813475888 c15.641425378195455,3.785789461067571 29.045434138037685,5.284495779553873 40.230565710729785,5.284495779553873 c0.5376435048899375,0 1.0713839716318532,-0.003951763529298096 1.5963426025407221,-0.008891467940920716 c9.239467055903477,-0.12151672852591637 16.911864295376397,-1.2695040337870118 23.052319061750943,-2.9401120657977806 c6.494655478307484,-1.7605106523023002 11.273925690559594,-4.1147737748816375 14.385622854069595,-6.29318342040721 c0.6313164204424495,-0.4356819291051149 1.1972569519055412,-0.8693879764455807 1.6900155180932337,-1.282347265257231 c0.3190733686007437,-0.2657560973452968 0.6069224320173162,-0.5265724902789708 0.8752563046937823,-0.774545651742426 c0.6752255996076899,-0.6352459873346691 1.1777417611654346,-1.2023240537889444 1.5104757632842525,-1.6478853917173042 c4.932464459561947,-6.508554532753957 14.137779931670241,-7.7415047538949615 20.57193831868339,-2.7494394755091474 c6.428303829791121,4.992065278385813 7.646051731973774,14.31427544400001 2.7155387914858355,20.82282997675397 c-2.890199748609791,3.807524160478711 -6.489776680622455,7.143800520088624 -10.722621552151583,10.101695521768244 C314.6443787900413,162.5243562893827 312.6518778154764,163.75236680611206 310.53155234156384,164.8964023478439 z" id="svg_5"/>
	<path fill="#00543A" d="M22.275597198060012,79.05224320090147 c0.14929120916181574,1.784221233478089 -1.1582265704253278,3.3520834137271063 -2.91947253471995,3.5032383687227577 c-1.761245964294623,0.1521428958779768 -3.310752109059088,-1.1707099455545595 -3.4600433182209036,-2.954931179032648 c-0.14929120916181574,-1.7832332925957641 1.1582265704253278,-3.3520834137271063 2.9184967751829447,-3.5032383687227577 C20.575824084596707,75.94516912599082 22.125330229361193,77.26802196742332 22.275597198060012,79.05224320090147 zM77.98073340615736,102.17796337435385 c-1.7622217238316278,0.1521428958779768 -3.0677879843447604,1.7209930170093188 -2.9165452561089342,3.5032383687227577 c0.1483154496248104,1.7832332925957641 1.697821594389276,3.1070740749106243 3.459067558683898,2.954931179032648 c1.761245964294623,-0.1511549549956521 3.0687637438817656,-1.7200050761269947 2.9175210156459404,-3.5052142504874073 C81.29148551521641,103.34867331990841 79.74295512998896,102.02582047847588 77.98073340615736,102.17796337435385 z" id="svg_6"/>
</g></g></svg>
